<svg width="319" height="292" viewBox="0 0 319 292" fill="none" xmlns="http://www.w3.org/2000/svg">
<ellipse cx="207.456" cy="242.539" rx="58.8844" ry="10.8347" fill="#F3F3F3"/>
<circle cx="18.1066" cy="18.1066" r="17.6066" transform="matrix(-0.937168 -0.348878 -0.348878 0.937168 223.557 85.5361)" stroke="#666666"/>
<path d="M199.94 92.9713L204.466 102.434L202.409 102.434" stroke="#666666" stroke-width="2" stroke-linecap="round"/>
<path d="M162.002 157.626L182.29 119.668L218.982 117.282L235.803 127.001L257.11 100.087" stroke="#666666" stroke-linecap="round"/>
<path d="M209.906 182.778L211.953 201.787L209.906 239.777" stroke="#666666" stroke-linecap="round"/>
<path d="M199.739 181.814L193.376 204.46L195.529 240.025" stroke="#666666" stroke-linecap="round"/>
<path d="M215.103 122.175L212.103 172.294C211.874 176.121 208.807 179.165 204.979 179.367V179.367C201.431 179.555 198.234 177.237 197.308 173.807L185.956 131.753" stroke="#666666" stroke-linecap="round"/>
<path d="M157.658 160.718C156.903 161.953 156.551 163.246 156.57 164.324C156.59 165.408 156.977 166.2 157.61 166.587C158.243 166.974 159.124 166.958 160.099 166.48C161.067 166.006 162.057 165.104 162.812 163.869C163.567 162.634 163.919 161.341 163.9 160.263C163.88 159.178 163.493 158.386 162.86 157.999C162.227 157.612 161.346 157.629 160.371 158.106C159.403 158.58 158.413 159.483 157.658 160.718Z" stroke="#666666"/>
<path d="M257.478 94.8244C256.815 95.9087 256.508 97.0418 256.525 97.9824C256.542 98.9301 256.88 99.6077 257.417 99.9361C257.954 100.264 258.711 100.256 259.563 99.8392C260.408 99.4254 261.276 98.6353 261.939 97.551C262.602 96.4667 262.909 95.3336 262.892 94.3929C262.875 93.4452 262.537 92.7676 262 92.4392C261.463 92.1109 260.706 92.1192 259.854 92.5361C259.009 92.9499 258.141 93.7401 257.478 94.8244Z" stroke="#666666"/>
<path d="M191.049 236.952C189.602 236.901 188.303 237.23 187.374 237.777C186.439 238.327 185.94 239.053 185.914 239.794C185.888 240.536 186.335 241.295 187.229 241.909C188.118 242.52 189.391 242.939 190.837 242.989C192.284 243.04 193.583 242.711 194.512 242.164C195.447 241.614 195.947 240.888 195.973 240.147C195.999 239.405 195.551 238.646 194.657 238.032C193.768 237.421 192.495 237.002 191.049 236.952Z" fill="#FF9068" stroke="#666666"/>
<path d="M215.143 236.952C213.697 236.901 212.397 237.23 211.468 237.777C210.533 238.327 210.034 239.053 210.008 239.794C209.982 240.536 210.429 241.295 211.324 241.909C212.212 242.52 213.485 242.939 214.932 242.989C216.378 243.04 217.677 242.711 218.606 242.164C219.542 241.614 220.041 240.888 220.067 240.147C220.093 239.405 219.646 238.646 218.751 238.032C217.863 237.421 216.59 237.002 215.143 236.952Z" fill="#FF9068" stroke="#666666"/>
<path d="M262.943 20.1302C263.08 22.7556 262.121 26.2231 260.584 29.4026C259.045 32.5861 256.98 35.3713 254.997 36.6886C254.937 36.7278 254.879 36.7667 254.821 36.8053C252.87 38.1025 251.56 38.973 249.177 39.0982C244.648 39.336 241.465 37.4736 238.729 34.0936C238.296 33.5588 237.86 32.7245 237.446 31.6891C237.035 30.6615 236.658 29.4675 236.334 28.237C235.683 25.7709 235.253 23.2007 235.168 21.5887C234.753 13.6844 240.648 6.97307 248.305 6.57099C255.962 6.16891 262.527 12.2259 262.943 20.1302Z" fill="url(#paint0_linear_101_7600)" stroke="#666666"/>
<path d="M244.793 38.6513L242.12 40.6964C242.606 41.2772 243.852 42.3313 244.947 41.9018C246.043 41.4722 247.887 41.615 248.673 41.7401L249.881 42.6875L246.332 38.8964" stroke="#666666" stroke-linecap="round"/>
<path d="M246.645 39.3903C247.65 41.1061 248.513 45.4552 243.928 49.1255C239.343 52.7958 241.609 61.5912 243.315 65.5301" stroke="#666666" stroke-linecap="round"/>
<path d="M205.804 64.0881C205.64 64.4432 205.411 65.3499 205.804 66.1365C206.197 66.923 205.968 67.4474 205.804 67.6112" stroke="#3399FF" stroke-linecap="round"/>
<path d="M229.669 72.47C229.505 72.825 229.276 73.7317 229.669 74.5183C230.063 75.3048 229.833 75.8292 229.669 75.9931" stroke="#3399FF" stroke-linecap="round"/>
<path d="M267.327 48.547C267.308 48.9375 267.435 49.8642 268.093 50.4466C268.752 51.029 268.736 51.6011 268.645 51.8144" stroke="#3399FF" stroke-linecap="round"/>
<circle cx="253.541" cy="53.2789" r="1.18095" fill="#3399FF" stroke="#3399FF"/>
<circle cx="263.541" cy="82.125" r="1.18095" fill="#3399FF" stroke="#3399FF"/>
<circle cx="283.049" cy="65.9305" r="1.18095" fill="#3399FF" stroke="#3399FF"/>
<path d="M239.152 43.2429C239.345 43.6606 239.614 44.7275 239.152 45.6529C238.689 46.5783 238.959 47.1953 239.152 47.388" stroke="#3399FF" stroke-linecap="round"/>
<path d="M213.485 40.1045C213.678 40.5222 213.948 41.589 213.485 42.5144C213.023 43.4399 213.292 44.0568 213.485 44.2496" stroke="#3399FF" stroke-linecap="round"/>
<path d="M169.179 31.9579C169.201 32.4174 169.053 33.5078 168.277 34.193C167.502 34.8782 167.522 35.5513 167.629 35.8022" stroke="#3399FF" stroke-linecap="round"/>
<circle cx="1.97773" cy="1.97773" r="1.47773" transform="matrix(-1 0 0 1 187.376 35.5474)" fill="#3399FF" stroke="#3399FF"/>
<circle cx="1.97773" cy="1.97773" r="1.47773" transform="matrix(-1 0 0 1 152.66 50.4326)" fill="#3399FF" stroke="#3399FF"/>
<path opacity="0.5" d="M0.541504 170.384L77.7017 132.769L105.672 153.023" stroke="#666666" stroke-linecap="round"/>
<path opacity="0.5" d="M92.1694 143.378L119.175 121.195L161.161 131.187" stroke="#666666" stroke-linecap="round"/>
<path opacity="0.5" d="M156.8 134.978C149.363 142.641 129.89 158.237 111.499 159.319C88.5109 160.671 96.6244 192.449 74.9883 193.125" stroke="#666666" stroke-linecap="round"/>
<path opacity="0.5" d="M66.9582 78.0624H72.7237C73.5646 78.0224 75.1743 77.3419 74.886 74.9396C74.5256 71.9366 71.6428 72.1762 70.5617 72.7768C70.4911 71.6783 69.7284 69.5799 67.2422 69.9745C64.7561 70.3692 64.5292 72.1778 64.7265 73.0328C63.4275 72.4953 60.7802 72.1241 60.5829 74.9396C60.5829 77.5972 60.5829 77.5053 60.5829 77.1271H52.8877" stroke="#808080" stroke-linecap="round" stroke-linejoin="round"/>
<path opacity="0.5" d="M96.9582 88.0624H102.724C103.565 88.0224 105.174 87.3419 104.886 84.9396C104.526 81.9366 101.643 82.1762 100.562 82.7768C100.491 81.6783 99.7284 79.5799 97.2422 79.9745C94.7561 80.3692 94.5292 82.1778 94.7265 83.0328C93.4275 82.4953 90.7802 82.1241 90.5829 84.9396C90.5829 87.5972 90.5829 87.5053 90.5829 87.1271H82.8877" stroke="#808080" stroke-linecap="round" stroke-linejoin="round"/>
<path opacity="0.5" d="M25.0474 67.9492C25.918 68.428 27.8233 69.3648 28.4792 69.2822C29.2991 69.179 31.5542 67.9492 32.5792 67.9492C33.6042 67.9492 35.8592 70.6152 36.9867 69.2822C38.1143 67.9492 42.6243 69.2822 42.1118 69.2822" stroke="#808080" stroke-linecap="round" stroke-linejoin="round"/>
<defs>
<linearGradient id="paint0_linear_101_7600" x1="247.65" y1="10.0219" x2="249.203" y2="39.5975" gradientUnits="userSpaceOnUse">
<stop stop-color="#FF7A4A"/>
<stop offset="1" stop-color="#FF7A4A" stop-opacity="0"/>
</linearGradient>
</defs>
</svg>
