<svg width="58" height="58" viewBox="0 0 58 58" fill="none" xmlns="http://www.w3.org/2000/svg">
<g clip-path="url(#clip0_101_833)">
<path d="M19.6398 26.137H18.2825C16.4303 26.0701 14.5841 26.3845 12.8585 27.0608C11.1329 27.7371 9.56463 28.7608 8.25113 30.0684L7.87671 30.5053V43.4228H14.2419V36.0904L15.0999 35.1231L15.49 34.6707C17.5211 32.5841 20.0498 31.0486 22.838 30.2088C21.442 29.1466 20.341 27.7449 19.6398 26.137Z" fill="#F8AC53"/>
<path d="M49.8119 30.0216C48.4984 28.714 46.9302 27.6903 45.2046 27.014C43.4789 26.3377 41.6327 26.0233 39.7805 26.0902C39.2124 26.0918 38.6448 26.1231 38.08 26.1838C37.3656 27.6923 36.2947 29.0041 34.9598 30.006C37.9365 30.8295 40.6329 32.4474 42.7603 34.6863L43.1503 35.1231L43.9928 36.0904V43.4384H50.1395V30.4585L49.8119 30.0216Z" fill="#F8AC53"/>
<path d="M18.2357 23.0948H18.7193C18.4946 21.1654 18.8331 19.2121 19.6941 17.4708C20.555 15.7296 21.9016 14.2747 23.5712 13.2819C22.966 12.3573 22.131 11.6057 21.1481 11.1008C20.1651 10.5958 19.0679 10.3548 17.9638 10.4014C16.8597 10.4479 15.7867 10.7803 14.8497 11.3662C13.9127 11.952 13.1439 12.7712 12.6186 13.7434C12.0934 14.7156 11.8296 15.8076 11.8531 16.9124C11.8767 18.0172 12.1867 19.097 12.753 20.0459C13.3192 20.9949 14.1222 21.7806 15.0833 22.326C16.0444 22.8713 17.1306 23.1578 18.2357 23.1572V23.0948Z" fill="#F8AC53"/>
<path d="M39.0317 21.9248C39.0506 22.2833 39.0506 22.6427 39.0317 23.0012C39.3311 23.0487 39.6335 23.0748 39.9365 23.0792H40.233C41.3332 23.0206 42.3994 22.678 43.3279 22.0849C44.2564 21.4919 45.0156 20.6685 45.5314 19.6949C46.0473 18.7214 46.3022 17.6309 46.2715 16.5295C46.2408 15.4282 45.9254 14.3536 45.3561 13.4103C44.7868 12.4671 43.9829 11.6873 43.0228 11.1469C42.0626 10.6065 40.9789 10.324 39.8772 10.3268C38.7754 10.3295 37.6931 10.6175 36.7357 11.1627C35.7783 11.7079 34.9784 12.4917 34.4138 13.4379C35.8258 14.3598 36.9869 15.6178 37.7929 17.099C38.5989 18.5803 39.0245 20.2384 39.0317 21.9248Z" fill="#F8AC53"/>
<path d="M28.7976 28.914C32.649 28.914 35.7712 25.7918 35.7712 21.9404C35.7712 18.0889 32.649 14.9668 28.7976 14.9668C24.9462 14.9668 21.824 18.0889 21.824 21.9404C21.824 25.7918 24.9462 28.914 28.7976 28.914Z" fill="#F8AC53"/>
<path d="M29.172 32.627C27.1346 32.5447 25.1016 32.8755 23.1953 33.5994C21.2891 34.3233 19.549 35.4253 18.0797 36.8392L17.6897 37.276V47.1514C17.6958 47.4731 17.7652 47.7904 17.8939 48.0853C18.0227 48.3801 18.2083 48.6467 18.4401 48.8698C18.6719 49.0929 18.9453 49.2682 19.2449 49.3855C19.5444 49.5029 19.8642 49.5602 20.1858 49.554H38.1113C38.433 49.5602 38.7527 49.5029 39.0522 49.3855C39.3518 49.2682 39.6253 49.0929 39.8571 48.8698C40.0889 48.6467 40.2744 48.3801 40.4032 48.0853C40.5319 47.7904 40.6013 47.4731 40.6074 47.1514V37.3072L40.233 36.8392C38.7733 35.421 37.0392 34.3158 35.1372 33.5915C33.2352 32.8672 31.2053 32.539 29.172 32.627Z" fill="#F8AC53"/>
</g>
<defs>
<clipPath id="clip0_101_833">
<rect width="56.1633" height="56.1633" fill="white" transform="translate(0.918701 0.957138)"/>
</clipPath>
</defs>
</svg>
