<svg width="161" height="209" viewBox="0 0 161 209" fill="none" xmlns="http://www.w3.org/2000/svg">
<circle cx="73.2775" cy="29.7858" r="19.2451" transform="rotate(-20.4187 73.2775 29.7858)" fill="white" stroke="#666666"/>
<path d="M75.5845 29.886L79.4649 38.893L76.7225 38.893" stroke="#666666" stroke-width="2" stroke-linecap="round"/>
<path d="M41.7997 99.961L50.9121 77.9098L57.4425 54.3995L90.4213 52.7672L108.441 84.6195L128.134 98.2312" stroke="#666666" stroke-linecap="round"/>
<path d="M74.2011 129.264L71.9688 149.993L74.2011 191.421" stroke="#666666" stroke-linecap="round"/>
<path d="M86.2675 124.876L93.3622 150.124L90.9618 189.777" stroke="#666666" stroke-linecap="round"/>
<path d="M58.0956 60.2773L71.1732 118.691C72.0858 122.767 75.9769 125.458 80.1127 124.873V124.873C83.8752 124.341 86.7463 121.239 86.9862 117.446L90.7479 57.9919" stroke="#666666" stroke-linecap="round"/>
<path d="M125.621 102.315C124.941 103.747 123.965 104.847 122.961 105.477C121.951 106.111 120.981 106.236 120.231 105.88C119.481 105.524 118.965 104.692 118.819 103.509C118.673 102.333 118.909 100.881 119.589 99.449C120.269 98.0168 121.246 96.9173 122.249 96.2871C123.259 95.6531 124.23 95.5279 124.979 95.884C125.729 96.2401 126.245 97.0716 126.392 98.2549C126.537 99.4312 126.302 100.883 125.621 102.315Z" stroke="#666666"/>
<path d="M94.6617 187.872C96.2464 187.816 97.6719 188.176 98.6936 188.777C99.7213 189.382 100.279 190.186 100.308 191.015C100.337 191.845 99.837 192.686 98.854 193.36C97.8769 194.031 96.48 194.491 94.8954 194.546C93.3107 194.602 91.8852 194.241 90.8635 193.64C89.8358 193.036 89.2778 192.232 89.2487 191.402C89.2197 190.573 89.7202 189.732 90.7031 189.057C91.6802 188.386 93.0771 187.927 94.6617 187.872Z" fill="#FF9068" stroke="#666666"/>
<path d="M40.4833 131.482L41.8 107.1L42.9518 82.6074C66.6488 106.304 109.106 97.0889 127.372 89.5191V134.938C102.096 149.946 58.9143 138.888 40.4833 131.482Z" fill="white" stroke="#222222" stroke-linecap="round"/>
<path d="M44.3237 104.116C44.0888 105.489 43.5248 106.648 42.8293 107.416C42.1291 108.189 41.3512 108.514 40.6539 108.394C39.9565 108.275 39.3309 107.71 38.9275 106.748C38.5268 105.793 38.3804 104.512 38.6153 103.139C38.8503 101.766 39.4142 100.607 40.1097 99.8392C40.81 99.0664 41.5879 98.7414 42.2852 98.8607C42.9825 98.9801 43.6081 99.5452 44.0116 100.507C44.4123 101.462 44.5587 102.743 44.3237 104.116Z" fill="white" stroke="#666666"/>
<path d="M130.226 104.116C129.991 105.489 129.427 106.648 128.732 107.416C128.032 108.189 127.254 108.514 126.557 108.394C125.859 108.275 125.234 107.71 124.83 106.748C124.429 105.793 124.283 104.512 124.518 103.139C124.753 101.766 125.317 100.607 126.012 99.8392C126.713 99.0664 127.491 98.7414 128.188 98.8607C128.885 98.9801 129.511 99.5452 129.914 100.507C130.315 101.462 130.461 102.743 130.226 104.116Z" fill="white" stroke="#666666"/>
<path d="M68.4883 188.294C70.0729 188.238 71.4984 188.599 72.5201 189.2C73.5479 189.804 74.1059 190.608 74.1349 191.438C74.164 192.267 73.6635 193.108 72.6806 193.783C71.7034 194.454 70.3066 194.913 68.7219 194.968C67.1373 195.024 65.7118 194.664 64.6901 194.063C63.6623 193.458 63.1043 192.654 63.0753 191.825C63.0462 190.995 63.5467 190.154 64.5296 189.479C65.5068 188.808 66.9036 188.349 68.4883 188.294Z" fill="#FF9068" stroke="#666666"/>
</svg>
