<svg width="47" height="33" viewBox="0 0 47 33" fill="none" xmlns="http://www.w3.org/2000/svg">
<path d="M1.00348 8.1748L1.0036 29.4844C1.0036 30.5889 1.89903 31.4843 3.0036 31.4843H9.55127" stroke="#222222" stroke-width="0.8" stroke-linecap="round"/>
<rect x="4.63328" y="0.631445" width="33.3593" height="27.3312" rx="1.6" stroke="#222222" stroke-width="0.8"/>
<path d="M6.24255 8.26904H36.3831" stroke="#222222" stroke-width="0.8" stroke-linecap="round"/>
<path d="M34.0399 15.9734L33.568 16.2716C33.1642 16.5267 32.663 16.5743 32.2184 16.3997L31.1778 15.9909C30.5015 15.7253 29.732 15.9826 29.3515 16.6017L28.3418 18.2445C27.9275 18.9186 28.108 19.7986 28.7542 20.2551L29.3745 20.6933C29.7724 20.9744 30.0091 21.4313 30.0091 21.9185V22.7717C30.0091 23.2155 29.8126 23.6365 29.4724 23.9215L28.6581 24.6038C28.0621 25.1031 27.9465 25.9751 28.3918 26.6125L29.58 28.3135C30.024 28.9492 30.8794 29.1417 31.5529 28.7575L32.0373 28.4812C32.5732 28.1755 33.2416 28.229 33.7219 28.6162L34.18 28.9855C34.5333 29.2702 34.7387 29.6996 34.7387 30.1533V30.5411C34.7387 31.3695 35.4103 32.0411 36.2387 32.0411H38.2443C39.0728 32.0411 39.7443 31.3695 39.7443 30.5411V29.9762C39.7443 29.4455 40.0248 28.9542 40.4818 28.6845L41.3636 28.1639C41.8037 27.9041 42.3458 27.8862 42.8021 28.1166L43.5823 28.5104C44.2683 28.8567 45.105 28.6286 45.5203 27.982L46.3442 26.6994C46.7251 26.1063 46.6418 25.328 46.1439 24.8291L45.2277 23.911C44.9471 23.6298 44.7895 23.2487 44.7895 22.8514V21.88C44.7895 21.4144 45.0057 20.9752 45.3747 20.6912L45.9105 20.279C46.5256 19.8057 46.6781 18.9414 46.2621 18.2862L45.2779 16.7359C44.8497 16.0614 43.9678 15.8409 43.2725 16.2346L42.8342 16.4827C42.3621 16.75 41.7826 16.7416 41.3185 16.4607L40.5072 15.9697C40.0582 15.6979 39.7839 15.2113 39.7839 14.6864V14.1494C39.7839 13.321 39.1123 12.6494 38.2839 12.6494H36.2387C35.4103 12.6494 34.7387 13.321 34.7387 14.1494V14.7053C34.7387 15.2199 34.475 15.6986 34.0399 15.9734Z" fill="#3399FF"/>
<path d="M40.1847 22.2725C40.1847 23.8293 38.9256 25.0895 37.3747 25.0895C35.8237 25.0895 34.5646 23.8293 34.5646 22.2725C34.5646 20.7158 35.8237 19.4556 37.3747 19.4556C38.9256 19.4556 40.1847 20.7158 40.1847 22.2725Z" stroke="white"/>
</svg>
