<svg width="18" height="18" viewBox="0 0 18 18" fill="none" xmlns="http://www.w3.org/2000/svg">
<path d="M14.6569 14.6569C17.781 11.5327 17.781 6.46734 14.6569 3.34315C11.5327 0.218951 6.46734 0.218952 3.34315 3.34315C0.218952 6.46734 0.218951 11.5327 3.34315 14.6569C6.46734 17.781 11.5327 17.781 14.6569 14.6569Z" stroke="#222222" stroke-width="0.8" stroke-linecap="round"/>
<path d="M12.376 12.8452C12.3785 12.6146 11.9472 12.3998 11.7137 12.4093C11.2128 12.4296 11.0802 12.2676 10.6147 12.1476C10.2238 12.0468 10.2841 11.3814 9.69116 11.3527C9.37523 11.3373 8.77978 10.4784 8.46814 10.7353C8.26193 10.9051 7.86502 10.449 7.72659 10.4474C7.40692 10.4434 7.6654 10.6332 7.45651 10.3953C7.31916 10.2386 6.94169 10.5681 6.86213 10.6614C6.70783 10.8421 6.03513 10.5708 5.93024 10.3113C5.89314 10.2194 6.10827 9.84977 5.94808 9.58665C5.88654 9.4855 5.44111 9.55971 5.37207 9.49246C5.27913 9.40184 5.61075 9.06915 5.57347 8.99994C5.41792 8.71149 4.90738 9.43484 4.68475 8.85277C4.50387 8.37969 4.73952 8.20201 4.78625 7.74588C4.8082 7.53128 5.17353 7.42621 5.35049 7.50399C5.63448 7.62868 5.5963 7.51238 5.81162 7.48901C5.98162 7.47045 6.16214 7.66311 6.32608 7.69147C6.51945 7.72501 6.38709 8.26766 6.56958 8.39771C6.67554 8.47316 6.67304 7.66757 6.67982 7.64831C6.79559 7.32168 7.3015 7.35129 7.38231 7.07729C7.58138 6.40192 8.03912 6.4524 8.59283 6.21408C8.85684 6.10045 9.50956 5.96862 9.67475 5.70978C9.98264 5.22725 9.17348 4.50728 8.96227 4.1671C8.95977 4.163 8.77514 4.37528 8.73251 4.37688C8.57571 4.38331 8.43015 3.4994 8.12974 4.00691C8.07248 4.1036 7.85271 4.13232 7.97544 4.27503C8.21501 4.55366 7.75085 4.62038 7.60618 4.58078C7.45955 4.54064 6.73905 4.1234 6.99218 3.8906C7.5086 3.41592 7.6258 3.66173 8.16203 3.65942C8.77657 3.65674 8.79869 4.23435 9.30691 3.6166C9.44748 3.44571 8.52915 2.95711 8.71039 2.74055C9.35187 1.9742 9.70471 3.67618 9.94518 3.97141C10.2968 4.40293 10.523 4.17531 10.495 3.69902C10.4818 3.47461 10.9593 3.26572 10.9919 3.02347C10.9985 2.97406 10.6841 2.52756 10.6375 2.49741C10.4718 2.39073 10.4334 2.27835 10.3483 2.17221C10.2411 2.03842 10.0727 2.23875 9.97711 2.11923C9.93287 2.06393 9.12656 2.09479 9.04076 2.09586C8.61727 2.07981 8.14312 2.0939 7.71624 2.10014C7.54107 2.09336 6.61418 2.54647 6.58956 2.1756C6.57743 1.99168 6.79773 1.66898 6.40421 1.81794C6.27827 1.86557 6.19854 1.79546 6.22405 1.79029C5.95236 1.84559 5.4445 2.03539 5.22669 2.23054C5.1061 2.33865 5.39491 2.38877 5.41471 2.48153C5.4527 2.66045 5.00174 2.99368 4.90078 3.10981C4.54204 3.52313 4.5581 4.07327 4.07485 4.47535C3.51668 4.93969 3.48564 5.61881 3.48029 6.25832C3.47761 6.56889 3.21146 6.69965 3.37968 7.05089C3.5231 7.35058 3.78979 7.49436 3.83421 7.85827C3.86328 8.09713 3.67616 8.31904 3.7666 8.55183C3.87791 8.83814 4.08966 9.09234 4.34903 9.22845C4.9022 9.51886 5.26415 9.73649 5.61878 10.2684C6.0585 10.9279 6.84197 10.64 6.58528 11.3058C6.47717 11.5862 6.20157 11.7196 6.08883 12.0191C5.95361 12.3782 6.21352 12.6379 6.38049 12.9292C6.54871 13.2229 6.61096 13.5752 6.90584 13.7752C7.11705 13.9184 7.50165 14.0374 7.55587 14.3285C7.64239 14.7918 7.25119 15.3705 7.29276 15.7947C7.32076 16.0801 7.32594 16.3733 7.57425 16.5596C8.02146 16.8949 7.9155 16.4274 8.19307 16.2066C8.45351 15.9993 8.76087 16.0606 9.05842 15.978C9.33135 15.9024 9.00615 15.802 9.11658 15.7399C9.35097 15.6082 9.48994 15.8059 9.71328 15.6052C9.91681 15.4224 10.1921 15.3703 10.2868 15.0847C10.4418 14.6175 11.1459 14.7886 11.4395 14.4254C11.6204 14.2015 11.6989 13.9633 11.7799 13.6924C11.8803 13.359 12.3723 13.2061 12.376 12.8452C12.3787 12.6042 12.3735 13.0864 12.376 12.8452Z" fill="#3399FF"/>
</svg>
