<svg width="20" height="16" viewBox="0 0 20 16" fill="none" xmlns="http://www.w3.org/2000/svg">
<rect x="1" y="1" width="18" height="14.1429" rx="3" stroke="#222222" stroke-linecap="round"/>
<path d="M7.42819 3.57153C8.34115 3.57153 9.08125 4.31986 9.08125 5.24296V6.35725C9.08125 7.28035 8.34115 8.02868 7.42819 8.02868C6.51523 8.02868 5.77513 7.28035 5.77513 6.35725V5.24296C5.77513 4.31986 6.51523 3.57153 7.42819 3.57153ZM11.2853 11.3715V10.9658C11.2853 9.19055 9.25411 8.02868 7.42819 8.02868C5.60227 8.02868 3.57104 9.19055 3.57104 10.9658V11.3715C3.57104 11.6792 3.81775 11.9287 4.12207 11.9287H10.7343C11.0386 11.9287 11.2853 11.6792 11.2853 11.3715Z" fill="#3399FF"/>
<path d="M12.25 5.5H16.75" stroke="#222222"/>
<path d="M12.571 10H15.7853" stroke="#222222"/>
</svg>
