<svg width="90" height="24" viewBox="0 0 90 24" fill="none" xmlns="http://www.w3.org/2000/svg">
<path d="M10 19.251H6V23.251H10V19.251Z" fill="#E6E6E6"/>
<path d="M4 19.251H0V23.251H4V19.251Z" fill="#E6E6E6"/>
<path d="M30 19.251H26V23.251H30V19.251Z" fill="#E6E6E6"/>
<path d="M24 19.251H20V23.251H24V19.251Z" fill="#E6E6E6"/>
<path d="M50 19.251H46V23.251H50V19.251Z" fill="#E6E6E6"/>
<path d="M44 19.251H40V23.251H44V19.251Z" fill="#E6E6E6"/>
<path d="M70 19.251H66V23.251H70V19.251Z" fill="#E6E6E6"/>
<path d="M64 19.251H60V23.251H64V19.251Z" fill="#E6E6E6"/>
<path d="M90 12.4236C90 11.319 89.1046 10.4236 88 10.4236C86.8954 10.4236 86 11.319 86 12.4236V23.3058H90V12.4236Z" fill="#FF7A4A"/>
<path d="M84 2.20655C84 1.10198 83.1046 0.206543 82 0.206543C80.8954 0.206543 80 1.10197 80 2.20654V23.3057H84V2.20655Z" fill="#82CA4D"/>
</svg>
