<svg width="42" height="32" viewBox="0 0 42 32" fill="none" xmlns="http://www.w3.org/2000/svg">
<path d="M7.72536 4.63177H30.209C31.8658 4.63177 33.209 5.97492 33.209 7.63177V26.5385C33.209 28.1954 31.8658 29.5385 30.209 29.5385H6.57108C6.57108 29.5385 0.993164 29.5385 0.993164 24.3082C0.993164 19.0779 7.72536 18.0575 7.72536 18.0575V0.998761C5.4813 0.967038 0.993164 1.98065 0.993164 6.28887C0.993164 10.5971 0.993164 18.2183 0.993164 22.3852" stroke="#222222" stroke-linecap="round"/>
<path d="M41.0072 22.886C41.0072 22.886 35.0889 31.5385 27.7883 31.5385C20.4877 31.5385 14.5693 22.886 14.5693 22.886C14.5693 22.886 20.4877 14.2336 27.7883 14.2336C35.0889 14.2336 41.0072 22.886 41.0072 22.886Z" fill="#3399FF"/>
<path d="M32.095 22.9462C32.095 25.129 30.1976 26.9526 27.7881 26.9526C25.3786 26.9526 23.4812 25.129 23.4812 22.9462C23.4812 20.7634 25.3786 18.9397 27.7881 18.9397C30.1976 18.9397 32.095 20.7634 32.095 22.9462Z" fill="#3399FF" stroke="white"/>
<path d="M30.4496 23.1938C29.8765 24.2143 28.8791 25.2842 27.4443 25.2347" stroke="white" stroke-linecap="round"/>
</svg>
