<svg width="285" height="207" viewBox="0 0 285 207" fill="none" xmlns="http://www.w3.org/2000/svg">
<g opacity="0.3" filter="url(#filter0_d_101_7456)">
<rect x="2.34485" y="0.388672" width="280" height="202.222" fill="white"/>
<rect x="2.84485" y="0.888672" width="279" height="201.222" stroke="#808080"/>
</g>
<path d="M69.1048 133.638C68.0115 133.638 67.0315 133.372 66.1648 132.838C65.3115 132.292 64.6315 131.512 64.1248 130.498C63.6315 129.485 63.3848 128.265 63.3848 126.838C63.3848 125.425 63.6382 124.212 64.1448 123.198C64.6515 122.185 65.3448 121.405 66.2248 120.858C67.1048 120.312 68.0982 120.038 69.2048 120.038C70.0048 120.038 70.7115 120.205 71.3248 120.538C71.9382 120.858 72.4315 121.232 72.8048 121.658L71.9048 122.738C71.5582 122.365 71.1648 122.065 70.7248 121.838C70.2848 121.612 69.7848 121.498 69.2248 121.498C68.3982 121.498 67.6715 121.718 67.0448 122.158C66.4315 122.585 65.9515 123.192 65.6048 123.978C65.2715 124.765 65.1048 125.705 65.1048 126.798C65.1048 127.892 65.2715 128.845 65.6048 129.658C65.9382 130.458 66.4048 131.078 67.0048 131.518C67.6182 131.958 68.3382 132.178 69.1648 132.178C69.7915 132.178 70.3515 132.045 70.8448 131.778C71.3382 131.512 71.7915 131.152 72.2048 130.698L73.1248 131.738C72.6048 132.338 72.0182 132.805 71.3648 133.138C70.7115 133.472 69.9582 133.638 69.1048 133.638ZM75.4106 133.398V123.678H76.7706L76.9106 125.438H76.9706C77.304 124.825 77.7106 124.338 78.1906 123.978C78.6706 123.618 79.184 123.438 79.7306 123.438C80.1173 123.438 80.464 123.505 80.7706 123.638L80.4506 125.078C80.2906 125.025 80.144 124.985 80.0106 124.958C79.8773 124.932 79.7106 124.918 79.5106 124.918C79.0973 124.918 78.664 125.085 78.2106 125.418C77.7706 125.752 77.384 126.332 77.0506 127.158V133.398H75.4106ZM86.0889 133.638C85.2222 133.638 84.4356 133.438 83.7289 133.038C83.0222 132.625 82.4622 132.038 82.0489 131.278C81.6356 130.518 81.4289 129.612 81.4289 128.558C81.4289 127.492 81.6356 126.578 82.0489 125.818C82.4756 125.058 83.0222 124.472 83.6889 124.058C84.3556 123.645 85.0556 123.438 85.7889 123.438C87.0289 123.438 87.9822 123.852 88.6489 124.678C89.3289 125.505 89.6689 126.612 89.6689 127.998C89.6689 128.172 89.6622 128.345 89.6489 128.518C89.6489 128.678 89.6356 128.818 89.6089 128.938H83.0489C83.1156 129.965 83.4356 130.785 84.0089 131.398C84.5956 132.012 85.3556 132.318 86.2889 132.318C86.7556 132.318 87.1822 132.252 87.5689 132.118C87.9689 131.972 88.3489 131.785 88.7089 131.558L89.2889 132.638C88.8756 132.905 88.4022 133.138 87.8689 133.338C87.3489 133.538 86.7556 133.638 86.0889 133.638ZM83.0289 127.758H88.2289C88.2289 126.772 88.0156 126.025 87.5889 125.518C87.1756 124.998 86.5889 124.738 85.8289 124.738C85.1489 124.738 84.5356 125.005 83.9889 125.538C83.4556 126.058 83.1356 126.798 83.0289 127.758ZM94.0373 133.638C93.224 133.638 92.544 133.398 91.9973 132.918C91.464 132.425 91.1973 131.745 91.1973 130.878C91.1973 129.812 91.6707 128.998 92.6173 128.438C93.5773 127.865 95.0907 127.465 97.1573 127.238C97.1573 126.825 97.0973 126.432 96.9773 126.058C96.8707 125.685 96.6707 125.385 96.3773 125.158C96.0973 124.918 95.6907 124.798 95.1573 124.798C94.5973 124.798 94.0707 124.905 93.5773 125.118C93.084 125.332 92.644 125.572 92.2573 125.838L91.6173 124.698C92.0707 124.405 92.624 124.125 93.2773 123.858C93.944 123.578 94.664 123.438 95.4373 123.438C96.624 123.438 97.484 123.805 98.0173 124.538C98.5507 125.258 98.8173 126.225 98.8173 127.438V133.398H97.4573L97.3173 132.238H97.2573C96.804 132.612 96.304 132.938 95.7573 133.218C95.224 133.498 94.6507 133.638 94.0373 133.638ZM94.5173 132.318C94.984 132.318 95.424 132.205 95.8373 131.978C96.2507 131.752 96.6907 131.432 97.1573 131.018V128.318C95.544 128.518 94.4107 128.818 93.7573 129.218C93.1173 129.618 92.7973 130.132 92.7973 130.758C92.7973 131.305 92.964 131.705 93.2973 131.958C93.6307 132.198 94.0373 132.318 94.5173 132.318ZM104.662 133.638C103.622 133.638 102.895 133.338 102.482 132.738C102.082 132.138 101.882 131.358 101.882 130.398V125.018H100.442V123.778L101.962 123.678L102.162 120.958H103.542V123.678H106.162V125.018H103.542V130.418C103.542 131.018 103.649 131.485 103.862 131.818C104.089 132.138 104.482 132.298 105.042 132.298C105.215 132.298 105.402 132.272 105.602 132.218C105.802 132.152 105.982 132.092 106.142 132.038L106.462 133.278C106.195 133.372 105.902 133.452 105.582 133.518C105.275 133.598 104.969 133.638 104.662 133.638ZM112.026 133.638C111.16 133.638 110.373 133.438 109.666 133.038C108.96 132.625 108.4 132.038 107.986 131.278C107.573 130.518 107.366 129.612 107.366 128.558C107.366 127.492 107.573 126.578 107.986 125.818C108.413 125.058 108.96 124.472 109.626 124.058C110.293 123.645 110.993 123.438 111.726 123.438C112.966 123.438 113.92 123.852 114.586 124.678C115.266 125.505 115.606 126.612 115.606 127.998C115.606 128.172 115.6 128.345 115.586 128.518C115.586 128.678 115.573 128.818 115.546 128.938H108.986C109.053 129.965 109.373 130.785 109.946 131.398C110.533 132.012 111.293 132.318 112.226 132.318C112.693 132.318 113.12 132.252 113.506 132.118C113.906 131.972 114.286 131.785 114.646 131.558L115.226 132.638C114.813 132.905 114.34 133.138 113.806 133.338C113.286 133.538 112.693 133.638 112.026 133.638ZM108.966 127.758H114.166C114.166 126.772 113.953 126.025 113.526 125.518C113.113 124.998 112.526 124.738 111.766 124.738C111.086 124.738 110.473 125.005 109.926 125.538C109.393 126.058 109.073 126.798 108.966 127.758ZM122.012 133.398V123.678H123.372L123.512 125.078H123.572C124.039 124.612 124.532 124.225 125.052 123.918C125.572 123.598 126.166 123.438 126.832 123.438C127.859 123.438 128.606 123.765 129.072 124.418C129.552 125.058 129.792 125.998 129.792 127.238V133.398H128.152V127.458C128.152 126.552 128.006 125.892 127.712 125.478C127.419 125.065 126.952 124.858 126.312 124.858C125.819 124.858 125.372 124.985 124.972 125.238C124.586 125.492 124.146 125.865 123.652 126.358V133.398H122.012ZM136.89 133.638C136.023 133.638 135.236 133.438 134.53 133.038C133.823 132.625 133.263 132.038 132.85 131.278C132.436 130.518 132.23 129.612 132.23 128.558C132.23 127.492 132.436 126.578 132.85 125.818C133.276 125.058 133.823 124.472 134.49 124.058C135.156 123.645 135.856 123.438 136.59 123.438C137.83 123.438 138.783 123.852 139.45 124.678C140.13 125.505 140.47 126.612 140.47 127.998C140.47 128.172 140.463 128.345 140.45 128.518C140.45 128.678 140.436 128.818 140.41 128.938H133.85C133.916 129.965 134.236 130.785 134.81 131.398C135.396 132.012 136.156 132.318 137.09 132.318C137.556 132.318 137.983 132.252 138.37 132.118C138.77 131.972 139.15 131.785 139.51 131.558L140.09 132.638C139.676 132.905 139.203 133.138 138.67 133.338C138.15 133.538 137.556 133.638 136.89 133.638ZM133.83 127.758H139.03C139.03 126.772 138.816 126.025 138.39 125.518C137.976 124.998 137.39 124.738 136.63 124.738C135.95 124.738 135.336 125.005 134.79 125.538C134.256 126.058 133.936 126.798 133.83 127.758ZM144.509 133.398L141.809 123.678H143.489L144.929 129.298C145.036 129.752 145.136 130.205 145.229 130.658C145.323 131.098 145.416 131.545 145.509 131.998H145.589C145.696 131.545 145.803 131.098 145.909 130.658C146.016 130.205 146.129 129.752 146.249 129.298L147.749 123.678H149.349L150.869 129.298C150.989 129.752 151.103 130.205 151.209 130.658C151.329 131.098 151.443 131.545 151.549 131.998H151.629C151.736 131.545 151.836 131.098 151.929 130.658C152.036 130.205 152.136 129.752 152.229 129.298L153.649 123.678H155.209L152.609 133.398H150.609L149.209 128.178C149.089 127.712 148.976 127.252 148.869 126.798C148.776 126.345 148.669 125.872 148.549 125.378H148.469C148.363 125.872 148.256 126.352 148.149 126.818C148.043 127.272 147.923 127.732 147.789 128.198L146.429 133.398H144.509ZM161.329 137.498V123.678H162.689L162.829 124.798H162.889C163.329 124.425 163.809 124.105 164.329 123.838C164.862 123.572 165.415 123.438 165.989 123.438C167.242 123.438 168.195 123.892 168.849 124.798C169.502 125.692 169.829 126.892 169.829 128.398C169.829 129.492 169.629 130.432 169.229 131.218C168.842 132.005 168.329 132.605 167.689 133.018C167.062 133.432 166.375 133.638 165.629 133.638C165.175 133.638 164.722 133.538 164.269 133.338C163.829 133.138 163.382 132.865 162.929 132.518L162.969 134.218V137.498H161.329ZM165.349 132.258C166.149 132.258 166.809 131.918 167.329 131.238C167.862 130.545 168.129 129.598 168.129 128.398C168.129 127.332 167.929 126.472 167.529 125.818C167.142 125.152 166.489 124.818 165.569 124.818C165.155 124.818 164.735 124.932 164.309 125.158C163.895 125.385 163.449 125.712 162.969 126.138V131.238C163.409 131.612 163.835 131.878 164.249 132.038C164.662 132.185 165.029 132.258 165.349 132.258ZM172.422 133.398V123.678H173.782L173.922 125.438H173.982C174.316 124.825 174.722 124.338 175.202 123.978C175.682 123.618 176.196 123.438 176.742 123.438C177.129 123.438 177.476 123.505 177.782 123.638L177.462 125.078C177.302 125.025 177.156 124.985 177.022 124.958C176.889 124.932 176.722 124.918 176.522 124.918C176.109 124.918 175.676 125.085 175.222 125.418C174.782 125.752 174.396 126.332 174.062 127.158V133.398H172.422ZM182.941 133.638C182.154 133.638 181.414 133.438 180.721 133.038C180.041 132.638 179.487 132.058 179.061 131.298C178.647 130.538 178.441 129.625 178.441 128.558C178.441 127.465 178.647 126.538 179.061 125.778C179.487 125.018 180.041 124.438 180.721 124.038C181.414 123.638 182.154 123.438 182.941 123.438C183.741 123.438 184.481 123.638 185.161 124.038C185.841 124.438 186.387 125.018 186.801 125.778C187.227 126.538 187.441 127.465 187.441 128.558C187.441 129.625 187.227 130.538 186.801 131.298C186.387 132.058 185.841 132.638 185.161 133.038C184.481 133.438 183.741 133.638 182.941 133.638ZM182.941 132.278C183.781 132.278 184.454 131.938 184.961 131.258C185.481 130.565 185.741 129.665 185.741 128.558C185.741 127.438 185.481 126.532 184.961 125.838C184.454 125.145 183.781 124.798 182.941 124.798C182.114 124.798 181.441 125.145 180.921 125.838C180.401 126.532 180.141 127.438 180.141 128.558C180.141 129.665 180.401 130.565 180.921 131.258C181.441 131.938 182.114 132.278 182.941 132.278ZM189 137.738C188.707 137.738 188.44 137.712 188.2 137.658C187.947 137.605 187.734 137.545 187.56 137.478L187.9 136.238C188.02 136.278 188.16 136.312 188.32 136.338C188.48 136.378 188.647 136.398 188.82 136.398C189.3 136.398 189.62 136.225 189.78 135.878C189.94 135.545 190.02 135.085 190.02 134.498V123.678H191.66V134.498C191.66 135.485 191.46 136.272 191.06 136.858C190.66 137.445 189.974 137.738 189 137.738ZM190.82 121.678C190.5 121.678 190.234 121.585 190.02 121.398C189.82 121.198 189.72 120.932 189.72 120.598C189.72 120.278 189.82 120.018 190.02 119.818C190.234 119.618 190.5 119.518 190.82 119.518C191.14 119.518 191.4 119.618 191.6 119.818C191.814 120.018 191.92 120.278 191.92 120.598C191.92 120.932 191.814 121.198 191.6 121.398C191.4 121.585 191.14 121.678 190.82 121.678ZM198.882 133.638C198.015 133.638 197.229 133.438 196.522 133.038C195.815 132.625 195.255 132.038 194.842 131.278C194.429 130.518 194.222 129.612 194.222 128.558C194.222 127.492 194.429 126.578 194.842 125.818C195.269 125.058 195.815 124.472 196.482 124.058C197.149 123.645 197.849 123.438 198.582 123.438C199.822 123.438 200.775 123.852 201.442 124.678C202.122 125.505 202.462 126.612 202.462 127.998C202.462 128.172 202.455 128.345 202.442 128.518C202.442 128.678 202.429 128.818 202.402 128.938H195.842C195.909 129.965 196.229 130.785 196.802 131.398C197.389 132.012 198.149 132.318 199.082 132.318C199.549 132.318 199.975 132.252 200.362 132.118C200.762 131.972 201.142 131.785 201.502 131.558L202.082 132.638C201.669 132.905 201.195 133.138 200.662 133.338C200.142 133.538 199.549 133.638 198.882 133.638ZM195.822 127.758H201.022C201.022 126.772 200.809 126.025 200.382 125.518C199.969 124.998 199.382 124.738 198.622 124.738C197.942 124.738 197.329 125.005 196.782 125.538C196.249 126.058 195.929 126.798 195.822 127.758ZM208.704 133.638C207.85 133.638 207.077 133.438 206.384 133.038C205.69 132.638 205.144 132.058 204.744 131.298C204.344 130.538 204.144 129.625 204.144 128.558C204.144 127.465 204.357 126.538 204.784 125.778C205.224 125.018 205.797 124.438 206.504 124.038C207.224 123.638 207.997 123.438 208.824 123.438C209.464 123.438 210.01 123.552 210.464 123.778C210.93 124.005 211.33 124.272 211.664 124.578L210.824 125.658C210.544 125.405 210.244 125.198 209.924 125.038C209.617 124.878 209.27 124.798 208.884 124.798C208.297 124.798 207.77 124.958 207.304 125.278C206.85 125.585 206.49 126.025 206.224 126.598C205.97 127.158 205.844 127.812 205.844 128.558C205.844 129.665 206.117 130.565 206.664 131.258C207.224 131.938 207.95 132.278 208.844 132.278C209.297 132.278 209.717 132.185 210.104 131.998C210.49 131.798 210.83 131.565 211.124 131.298L211.844 132.398C211.404 132.785 210.917 133.092 210.384 133.318C209.85 133.532 209.29 133.638 208.704 133.638ZM216.85 133.638C215.81 133.638 215.083 133.338 214.67 132.738C214.27 132.138 214.07 131.358 214.07 130.398V125.018H212.63V123.778L214.15 123.678L214.35 120.958H215.73V123.678H218.35V125.018H215.73V130.418C215.73 131.018 215.836 131.485 216.05 131.818C216.276 132.138 216.67 132.298 217.23 132.298C217.403 132.298 217.59 132.272 217.79 132.218C217.99 132.152 218.17 132.092 218.33 132.038L218.65 133.278C218.383 133.372 218.09 133.452 217.77 133.518C217.463 133.598 217.156 133.638 216.85 133.638Z" fill="#222222"/>
<path d="M133.394 100.069H130.037C127.5 100.069 125.444 98.0122 125.444 95.4752V71.0936C125.444 68.5566 127.5 66.5 130.037 66.5H152.652C155.189 66.5 157.246 68.5566 157.246 71.0936V95.4752C157.246 98.0122 155.189 100.069 152.652 100.069H149.295" stroke="#222222" stroke-linecap="round" stroke-linejoin="round"/>
<path d="M144.654 75.1195L150.15 78.832C151.047 79.4377 151.299 80.6467 150.72 81.5605L140.439 97.7691L133.324 100.198L131.87 92.8218L141.807 75.7699C142.389 74.7704 143.695 74.472 144.654 75.1195Z" fill="#3399FF"/>
<path d="M140.282 97.5976C138.57 94.9095 135.512 92.9928 132.009 92.9928" stroke="white" stroke-linecap="round" stroke-linejoin="round"/>
<path d="M138.518 87.169L143.995 78.5117" stroke="white"/>
<defs>
<filter id="filter0_d_101_7456" x="0.344849" y="0.388672" width="284" height="206.222" filterUnits="userSpaceOnUse" color-interpolation-filters="sRGB">
<feFlood flood-opacity="0" result="BackgroundImageFix"/>
<feColorMatrix in="SourceAlpha" type="matrix" values="0 0 0 0 0 0 0 0 0 0 0 0 0 0 0 0 0 0 127 0" result="hardAlpha"/>
<feOffset dy="2"/>
<feGaussianBlur stdDeviation="1"/>
<feComposite in2="hardAlpha" operator="out"/>
<feColorMatrix type="matrix" values="0 0 0 0 0.2 0 0 0 0 0.6 0 0 0 0 1 0 0 0 0.25 0"/>
<feBlend mode="normal" in2="BackgroundImageFix" result="effect1_dropShadow_101_7456"/>
<feBlend mode="normal" in="SourceGraphic" in2="effect1_dropShadow_101_7456" result="shape"/>
</filter>
</defs>
</svg>
