<svg width="285" height="207" viewBox="0 0 285 207" fill="none" xmlns="http://www.w3.org/2000/svg">
<g opacity="0.3" filter="url(#filter0_d_101_7444)">
<rect x="2.65515" y="0.388672" width="280" height="202.222" fill="white"/>
<rect x="3.15515" y="0.888672" width="279" height="201.222" stroke="#808080"/>
</g>
<path d="M46.9552 133.398V120.278H54.5152V121.678H48.6152V125.798H53.5952V127.218H48.6152V131.978H54.7152V133.398H46.9552ZM55.357 133.398L58.537 128.318L55.597 123.678H57.377L58.677 125.818C58.8237 126.072 58.977 126.338 59.137 126.618C59.297 126.898 59.4637 127.172 59.637 127.438H59.717C59.8637 127.172 60.0104 126.898 60.157 126.618C60.3037 126.338 60.4504 126.072 60.597 125.818L61.777 123.678H63.497L60.557 128.498L63.717 133.398H61.937L60.517 131.138C60.3437 130.845 60.1704 130.552 59.997 130.258C59.8237 129.965 59.6437 129.678 59.457 129.398H59.377C59.2037 129.678 59.037 129.965 58.877 130.258C58.717 130.538 58.557 130.832 58.397 131.138L57.077 133.398H55.357ZM65.6428 137.498V123.678H67.0028L67.1428 124.798H67.2028C67.6428 124.425 68.1228 124.105 68.6428 123.838C69.1761 123.572 69.7295 123.438 70.3028 123.438C71.5561 123.438 72.5095 123.892 73.1628 124.798C73.8161 125.692 74.1428 126.892 74.1428 128.398C74.1428 129.492 73.9428 130.432 73.5428 131.218C73.1561 132.005 72.6428 132.605 72.0028 133.018C71.3761 133.432 70.6895 133.638 69.9428 133.638C69.4895 133.638 69.0361 133.538 68.5828 133.338C68.1428 133.138 67.6961 132.865 67.2428 132.518L67.2828 134.218V137.498H65.6428ZM69.6628 132.258C70.4628 132.258 71.1228 131.918 71.6428 131.238C72.1761 130.545 72.4428 129.598 72.4428 128.398C72.4428 127.332 72.2428 126.472 71.8428 125.818C71.4561 125.152 70.8028 124.818 69.8828 124.818C69.4695 124.818 69.0495 124.932 68.6228 125.158C68.2095 125.385 67.7628 125.712 67.2828 126.138V131.238C67.7228 131.612 68.1495 131.878 68.5628 132.038C68.9761 132.185 69.3428 132.258 69.6628 132.258ZM78.4766 133.638C77.8632 133.638 77.4166 133.452 77.1366 133.078C76.8699 132.692 76.7366 132.145 76.7366 131.438V119.158H78.3766V131.558C78.3766 131.812 78.4232 131.998 78.5166 132.118C78.6099 132.225 78.7166 132.278 78.8366 132.278C78.8899 132.278 78.9366 132.278 78.9766 132.278C79.0299 132.265 79.1032 132.252 79.1966 132.238L79.4166 133.478C79.3099 133.532 79.1832 133.572 79.0366 133.598C78.8899 133.625 78.7032 133.638 78.4766 133.638ZM85.6142 133.638C84.8275 133.638 84.0875 133.438 83.3942 133.038C82.7142 132.638 82.1609 132.058 81.7342 131.298C81.3209 130.538 81.1142 129.625 81.1142 128.558C81.1142 127.465 81.3209 126.538 81.7342 125.778C82.1609 125.018 82.7142 124.438 83.3942 124.038C84.0875 123.638 84.8275 123.438 85.6142 123.438C86.4142 123.438 87.1542 123.638 87.8342 124.038C88.5142 124.438 89.0609 125.018 89.4742 125.778C89.9009 126.538 90.1142 127.465 90.1142 128.558C90.1142 129.625 89.9009 130.538 89.4742 131.298C89.0609 132.058 88.5142 132.638 87.8342 133.038C87.1542 133.438 86.4142 133.638 85.6142 133.638ZM85.6142 132.278C86.4542 132.278 87.1275 131.938 87.6342 131.258C88.1542 130.565 88.4142 129.665 88.4142 128.558C88.4142 127.438 88.1542 126.532 87.6342 125.838C87.1275 125.145 86.4542 124.798 85.6142 124.798C84.7875 124.798 84.1142 125.145 83.5942 125.838C83.0742 126.532 82.8142 127.438 82.8142 128.558C82.8142 129.665 83.0742 130.565 83.5942 131.258C84.1142 131.938 84.7875 132.278 85.6142 132.278ZM92.6741 133.398V123.678H94.0341L94.1741 125.438H94.2341C94.5674 124.825 94.9741 124.338 95.4541 123.978C95.9341 123.618 96.4474 123.438 96.9941 123.438C97.3807 123.438 97.7274 123.505 98.0341 123.638L97.7141 125.078C97.5541 125.025 97.4074 124.985 97.2741 124.958C97.1407 124.932 96.9741 124.918 96.7741 124.918C96.3607 124.918 95.9274 125.085 95.4741 125.418C95.0341 125.752 94.6474 126.332 94.3141 127.158V133.398H92.6741ZM103.352 133.638C102.486 133.638 101.699 133.438 100.992 133.038C100.286 132.625 99.7257 132.038 99.3123 131.278C98.899 130.518 98.6923 129.612 98.6923 128.558C98.6923 127.492 98.899 126.578 99.3123 125.818C99.739 125.058 100.286 124.472 100.952 124.058C101.619 123.645 102.319 123.438 103.052 123.438C104.292 123.438 105.246 123.852 105.912 124.678C106.592 125.505 106.932 126.612 106.932 127.998C106.932 128.172 106.926 128.345 106.912 128.518C106.912 128.678 106.899 128.818 106.872 128.938H100.312C100.379 129.965 100.699 130.785 101.272 131.398C101.859 132.012 102.619 132.318 103.552 132.318C104.019 132.318 104.446 132.252 104.832 132.118C105.232 131.972 105.612 131.785 105.972 131.558L106.552 132.638C106.139 132.905 105.666 133.138 105.132 133.338C104.612 133.538 104.019 133.638 103.352 133.638ZM100.292 127.758H105.492C105.492 126.772 105.279 126.025 104.852 125.518C104.439 124.998 103.852 124.738 103.092 124.738C102.412 124.738 101.799 125.005 101.252 125.538C100.719 126.058 100.399 126.798 100.292 127.758ZM115.878 133.638C115.185 133.638 114.525 133.512 113.898 133.258C113.271 132.992 112.725 132.672 112.258 132.298L113.078 131.198C113.505 131.532 113.945 131.812 114.398 132.038C114.851 132.252 115.365 132.358 115.938 132.358C116.578 132.358 117.058 132.212 117.378 131.918C117.698 131.612 117.858 131.252 117.858 130.838C117.858 130.505 117.745 130.225 117.518 129.998C117.305 129.772 117.025 129.585 116.678 129.438C116.345 129.278 115.998 129.132 115.638 128.998C115.185 128.825 114.738 128.632 114.298 128.418C113.858 128.192 113.498 127.905 113.218 127.558C112.938 127.198 112.798 126.745 112.798 126.198C112.798 125.412 113.091 124.758 113.678 124.238C114.278 123.705 115.105 123.438 116.158 123.438C116.758 123.438 117.318 123.545 117.838 123.758C118.358 123.972 118.805 124.232 119.178 124.538L118.378 125.578C118.045 125.325 117.698 125.118 117.338 124.958C116.978 124.798 116.585 124.718 116.158 124.718C115.545 124.718 115.091 124.858 114.798 125.138C114.518 125.418 114.378 125.745 114.378 126.118C114.378 126.425 114.478 126.678 114.678 126.878C114.878 127.065 115.138 127.232 115.458 127.378C115.778 127.512 116.118 127.652 116.478 127.798C116.945 127.972 117.405 128.172 117.858 128.398C118.311 128.612 118.685 128.905 118.978 129.278C119.285 129.638 119.438 130.125 119.438 130.738C119.438 131.258 119.298 131.738 119.018 132.178C118.751 132.618 118.351 132.972 117.818 133.238C117.298 133.505 116.651 133.638 115.878 133.638ZM123.957 133.638C123.144 133.638 122.464 133.398 121.917 132.918C121.384 132.425 121.117 131.745 121.117 130.878C121.117 129.812 121.59 128.998 122.537 128.438C123.497 127.865 125.01 127.465 127.077 127.238C127.077 126.825 127.017 126.432 126.897 126.058C126.79 125.685 126.59 125.385 126.297 125.158C126.017 124.918 125.61 124.798 125.077 124.798C124.517 124.798 123.99 124.905 123.497 125.118C123.004 125.332 122.564 125.572 122.177 125.838L121.537 124.698C121.99 124.405 122.544 124.125 123.197 123.858C123.864 123.578 124.584 123.438 125.357 123.438C126.544 123.438 127.404 123.805 127.937 124.538C128.47 125.258 128.737 126.225 128.737 127.438V133.398H127.377L127.237 132.238H127.177C126.724 132.612 126.224 132.938 125.677 133.218C125.144 133.498 124.57 133.638 123.957 133.638ZM124.437 132.318C124.904 132.318 125.344 132.205 125.757 131.978C126.17 131.752 126.61 131.432 127.077 131.018V128.318C125.464 128.518 124.33 128.818 123.677 129.218C123.037 129.618 122.717 130.132 122.717 130.758C122.717 131.305 122.884 131.705 123.217 131.958C123.55 132.198 123.957 132.318 124.437 132.318ZM131.795 133.398V123.678H133.155L133.295 125.078H133.355C133.782 124.612 134.248 124.225 134.755 123.918C135.262 123.598 135.802 123.438 136.375 123.438C137.122 123.438 137.702 123.605 138.115 123.938C138.542 124.258 138.855 124.712 139.055 125.298C139.562 124.752 140.075 124.305 140.595 123.958C141.115 123.612 141.668 123.438 142.255 123.438C143.255 123.438 143.995 123.765 144.475 124.418C144.968 125.058 145.215 125.998 145.215 127.238V133.398H143.575V127.458C143.575 126.552 143.428 125.892 143.135 125.478C142.842 125.065 142.388 124.858 141.775 124.858C141.055 124.858 140.242 125.358 139.335 126.358V133.398H137.695V127.458C137.695 126.552 137.548 125.892 137.255 125.478C136.962 125.065 136.502 124.858 135.875 124.858C135.155 124.858 134.342 125.358 133.435 126.358V133.398H131.795ZM148.377 137.498V123.678H149.737L149.877 124.798H149.937C150.377 124.425 150.857 124.105 151.377 123.838C151.911 123.572 152.464 123.438 153.037 123.438C154.291 123.438 155.244 123.892 155.897 124.798C156.551 125.692 156.877 126.892 156.877 128.398C156.877 129.492 156.677 130.432 156.277 131.218C155.891 132.005 155.377 132.605 154.737 133.018C154.111 133.432 153.424 133.638 152.677 133.638C152.224 133.638 151.771 133.538 151.317 133.338C150.877 133.138 150.431 132.865 149.977 132.518L150.017 134.218V137.498H148.377ZM152.397 132.258C153.197 132.258 153.857 131.918 154.377 131.238C154.911 130.545 155.177 129.598 155.177 128.398C155.177 127.332 154.977 126.472 154.577 125.818C154.191 125.152 153.537 124.818 152.617 124.818C152.204 124.818 151.784 124.932 151.357 125.158C150.944 125.385 150.497 125.712 150.017 126.138V131.238C150.457 131.612 150.884 131.878 151.297 132.038C151.711 132.185 152.077 132.258 152.397 132.258ZM161.211 133.638C160.598 133.638 160.151 133.452 159.871 133.078C159.604 132.692 159.471 132.145 159.471 131.438V119.158H161.111V131.558C161.111 131.812 161.158 131.998 161.251 132.118C161.344 132.225 161.451 132.278 161.571 132.278C161.624 132.278 161.671 132.278 161.711 132.278C161.764 132.265 161.838 132.252 161.931 132.238L162.151 133.478C162.044 133.532 161.918 133.572 161.771 133.598C161.624 133.625 161.438 133.638 161.211 133.638ZM168.509 133.638C167.642 133.638 166.855 133.438 166.149 133.038C165.442 132.625 164.882 132.038 164.469 131.278C164.055 130.518 163.849 129.612 163.849 128.558C163.849 127.492 164.055 126.578 164.469 125.818C164.895 125.058 165.442 124.472 166.109 124.058C166.775 123.645 167.475 123.438 168.209 123.438C169.449 123.438 170.402 123.852 171.069 124.678C171.749 125.505 172.089 126.612 172.089 127.998C172.089 128.172 172.082 128.345 172.069 128.518C172.069 128.678 172.055 128.818 172.029 128.938H165.469C165.535 129.965 165.855 130.785 166.429 131.398C167.015 132.012 167.775 132.318 168.709 132.318C169.175 132.318 169.602 132.252 169.989 132.118C170.389 131.972 170.769 131.785 171.129 131.558L171.709 132.638C171.295 132.905 170.822 133.138 170.289 133.338C169.769 133.538 169.175 133.638 168.509 133.638ZM165.449 127.758H170.649C170.649 126.772 170.435 126.025 170.009 125.518C169.595 124.998 169.009 124.738 168.249 124.738C167.569 124.738 166.955 125.005 166.409 125.538C165.875 126.058 165.555 126.798 165.449 127.758ZM178.494 137.498V123.678H179.854L179.994 124.798H180.054C180.494 124.425 180.974 124.105 181.494 123.838C182.028 123.572 182.581 123.438 183.154 123.438C184.408 123.438 185.361 123.892 186.014 124.798C186.668 125.692 186.994 126.892 186.994 128.398C186.994 129.492 186.794 130.432 186.394 131.218C186.008 132.005 185.494 132.605 184.854 133.018C184.228 133.432 183.541 133.638 182.794 133.638C182.341 133.638 181.888 133.538 181.434 133.338C180.994 133.138 180.548 132.865 180.094 132.518L180.134 134.218V137.498H178.494ZM182.514 132.258C183.314 132.258 183.974 131.918 184.494 131.238C185.028 130.545 185.294 129.598 185.294 128.398C185.294 127.332 185.094 126.472 184.694 125.818C184.308 125.152 183.654 124.818 182.734 124.818C182.321 124.818 181.901 124.932 181.474 125.158C181.061 125.385 180.614 125.712 180.134 126.138V131.238C180.574 131.612 181.001 131.878 181.414 132.038C181.828 132.185 182.194 132.258 182.514 132.258ZM189.588 133.398V123.678H190.948L191.088 125.438H191.148C191.481 124.825 191.888 124.338 192.368 123.978C192.848 123.618 193.361 123.438 193.908 123.438C194.295 123.438 194.641 123.505 194.948 123.638L194.628 125.078C194.468 125.025 194.321 124.985 194.188 124.958C194.055 124.932 193.888 124.918 193.688 124.918C193.275 124.918 192.841 125.085 192.388 125.418C191.948 125.752 191.561 126.332 191.228 127.158V133.398H189.588ZM200.106 133.638C199.32 133.638 198.58 133.438 197.886 133.038C197.206 132.638 196.653 132.058 196.226 131.298C195.813 130.538 195.606 129.625 195.606 128.558C195.606 127.465 195.813 126.538 196.226 125.778C196.653 125.018 197.206 124.438 197.886 124.038C198.58 123.638 199.32 123.438 200.106 123.438C200.906 123.438 201.646 123.638 202.326 124.038C203.006 124.438 203.553 125.018 203.966 125.778C204.393 126.538 204.606 127.465 204.606 128.558C204.606 129.625 204.393 130.538 203.966 131.298C203.553 132.058 203.006 132.638 202.326 133.038C201.646 133.438 200.906 133.638 200.106 133.638ZM200.106 132.278C200.946 132.278 201.62 131.938 202.126 131.258C202.646 130.565 202.906 129.665 202.906 128.558C202.906 127.438 202.646 126.532 202.126 125.838C201.62 125.145 200.946 124.798 200.106 124.798C199.28 124.798 198.606 125.145 198.086 125.838C197.566 126.532 197.306 127.438 197.306 128.558C197.306 129.665 197.566 130.565 198.086 131.258C198.606 131.938 199.28 132.278 200.106 132.278ZM206.166 137.738C205.873 137.738 205.606 137.712 205.366 137.658C205.113 137.605 204.9 137.545 204.726 137.478L205.066 136.238C205.186 136.278 205.326 136.312 205.486 136.338C205.646 136.378 205.813 136.398 205.986 136.398C206.466 136.398 206.786 136.225 206.946 135.878C207.106 135.545 207.186 135.085 207.186 134.498V123.678H208.826V134.498C208.826 135.485 208.626 136.272 208.226 136.858C207.826 137.445 207.14 137.738 206.166 137.738ZM207.986 121.678C207.666 121.678 207.4 121.585 207.186 121.398C206.986 121.198 206.886 120.932 206.886 120.598C206.886 120.278 206.986 120.018 207.186 119.818C207.4 119.618 207.666 119.518 207.986 119.518C208.306 119.518 208.566 119.618 208.766 119.818C208.98 120.018 209.086 120.278 209.086 120.598C209.086 120.932 208.98 121.198 208.766 121.398C208.566 121.585 208.306 121.678 207.986 121.678ZM216.048 133.638C215.181 133.638 214.394 133.438 213.688 133.038C212.981 132.625 212.421 132.038 212.008 131.278C211.594 130.518 211.388 129.612 211.388 128.558C211.388 127.492 211.594 126.578 212.008 125.818C212.434 125.058 212.981 124.472 213.648 124.058C214.314 123.645 215.014 123.438 215.748 123.438C216.988 123.438 217.941 123.852 218.608 124.678C219.288 125.505 219.628 126.612 219.628 127.998C219.628 128.172 219.621 128.345 219.608 128.518C219.608 128.678 219.594 128.818 219.568 128.938H213.008C213.074 129.965 213.394 130.785 213.968 131.398C214.554 132.012 215.314 132.318 216.248 132.318C216.714 132.318 217.141 132.252 217.528 132.118C217.928 131.972 218.308 131.785 218.668 131.558L219.248 132.638C218.834 132.905 218.361 133.138 217.828 133.338C217.308 133.538 216.714 133.638 216.048 133.638ZM212.988 127.758H218.188C218.188 126.772 217.974 126.025 217.548 125.518C217.134 124.998 216.548 124.738 215.788 124.738C215.108 124.738 214.494 125.005 213.948 125.538C213.414 126.058 213.094 126.798 212.988 127.758ZM225.87 133.638C225.016 133.638 224.243 133.438 223.55 133.038C222.856 132.638 222.31 132.058 221.91 131.298C221.51 130.538 221.31 129.625 221.31 128.558C221.31 127.465 221.523 126.538 221.95 125.778C222.39 125.018 222.963 124.438 223.67 124.038C224.39 123.638 225.163 123.438 225.99 123.438C226.63 123.438 227.176 123.552 227.63 123.778C228.096 124.005 228.496 124.272 228.83 124.578L227.99 125.658C227.71 125.405 227.41 125.198 227.09 125.038C226.783 124.878 226.436 124.798 226.05 124.798C225.463 124.798 224.936 124.958 224.47 125.278C224.016 125.585 223.656 126.025 223.39 126.598C223.136 127.158 223.01 127.812 223.01 128.558C223.01 129.665 223.283 130.565 223.83 131.258C224.39 131.938 225.116 132.278 226.01 132.278C226.463 132.278 226.883 132.185 227.27 131.998C227.656 131.798 227.996 131.565 228.29 131.298L229.01 132.398C228.57 132.785 228.083 133.092 227.55 133.318C227.016 133.532 226.456 133.638 225.87 133.638ZM234.015 133.638C232.975 133.638 232.249 133.338 231.835 132.738C231.435 132.138 231.235 131.358 231.235 130.398V125.018H229.795V123.778L231.315 123.678L231.515 120.958H232.895V123.678H235.515V125.018H232.895V130.418C232.895 131.018 233.002 131.485 233.215 131.818C233.442 132.138 233.835 132.298 234.395 132.298C234.569 132.298 234.755 132.272 234.955 132.218C235.155 132.152 235.335 132.092 235.495 132.038L235.815 133.278C235.549 133.372 235.255 133.452 234.935 133.518C234.629 133.598 234.322 133.638 234.015 133.638Z" fill="#222222"/>
<path d="M141.376 97.6841H128.655C126.446 97.6841 124.655 95.8933 124.655 93.6841V71.1934C124.655 68.9842 126.446 67.1934 128.655 67.1934H149.179C151.388 67.1934 153.179 68.9842 153.179 71.1934V85.2255" stroke="black" stroke-linecap="round"/>
<path d="M147.307 100.047C152.031 100.047 155.861 96.2175 155.861 91.4934C155.861 86.7692 152.031 82.9395 147.307 82.9395C142.583 82.9395 138.753 86.7692 138.753 91.4934C138.753 96.2175 142.583 100.047 147.307 100.047Z" fill="#3399FF"/>
<path d="M157.655 101.693L153.294 97.4844" stroke="#3399FF" stroke-width="2" stroke-linecap="round" stroke-linejoin="round"/>
<path d="M131.213 75.8809H139.737" stroke="black"/>
<path d="M143.321 90.5234H151.488" stroke="white"/>
<path d="M143.321 94.0312H146.821" stroke="white"/>
<defs>
<filter id="filter0_d_101_7444" x="0.655151" y="0.388672" width="284" height="206.222" filterUnits="userSpaceOnUse" color-interpolation-filters="sRGB">
<feFlood flood-opacity="0" result="BackgroundImageFix"/>
<feColorMatrix in="SourceAlpha" type="matrix" values="0 0 0 0 0 0 0 0 0 0 0 0 0 0 0 0 0 0 127 0" result="hardAlpha"/>
<feOffset dy="2"/>
<feGaussianBlur stdDeviation="1"/>
<feComposite in2="hardAlpha" operator="out"/>
<feColorMatrix type="matrix" values="0 0 0 0 0.2 0 0 0 0 0.6 0 0 0 0 1 0 0 0 0.25 0"/>
<feBlend mode="normal" in2="BackgroundImageFix" result="effect1_dropShadow_101_7444"/>
<feBlend mode="normal" in="SourceGraphic" in2="effect1_dropShadow_101_7444" result="shape"/>
</filter>
</defs>
</svg>
