<svg width="14" height="15" viewBox="0 0 14 15" fill="none" xmlns="http://www.w3.org/2000/svg">
<circle cx="7" cy="7.05859" r="6.65" stroke="#8A8A8A" stroke-width="0.7"/>
<mask id="path-2-inside-1_134_528" fill="white">
<path d="M10.2457 5.16565C9.8211 4.43733 9.16392 3.87297 8.3798 3.56334C7.59569 3.25372 6.73022 3.21682 5.9226 3.45858C5.11498 3.70035 4.41215 4.20673 3.92715 4.89628C3.44214 5.58582 3.20316 6.41846 3.24863 7.26026C3.29411 8.10207 3.62139 8.90411 4.17786 9.5374C4.73432 10.1707 5.48761 10.5984 6.31657 10.7518C7.14554 10.9051 8.002 10.7752 8.74819 10.3829C9.49439 9.99063 10.087 9.35876 10.4306 8.58894L9.75515 8.28744C9.47918 8.9057 9.00328 9.41316 8.404 9.72822C7.80472 10.0433 7.11689 10.1476 6.45113 10.0244C5.78538 9.90128 5.1804 9.55777 4.73349 9.04917C4.28659 8.54056 4.02374 7.89643 3.98722 7.22036C3.9507 6.5443 4.14263 5.8756 4.53215 5.32181C4.92166 4.76803 5.48611 4.36135 6.13473 4.16718C6.78334 3.97301 7.47841 4.00265 8.10814 4.25131C8.73787 4.49998 9.26567 4.95322 9.60664 5.53815L10.2457 5.16565Z"/>
</mask>
<path d="M10.2457 5.16565C9.8211 4.43733 9.16392 3.87297 8.3798 3.56334C7.59569 3.25372 6.73022 3.21682 5.9226 3.45858C5.11498 3.70035 4.41215 4.20673 3.92715 4.89628C3.44214 5.58582 3.20316 6.41846 3.24863 7.26026C3.29411 8.10207 3.62139 8.90411 4.17786 9.5374C4.73432 10.1707 5.48761 10.5984 6.31657 10.7518C7.14554 10.9051 8.002 10.7752 8.74819 10.3829C9.49439 9.99063 10.087 9.35876 10.4306 8.58894L9.75515 8.28744C9.47918 8.9057 9.00328 9.41316 8.404 9.72822C7.80472 10.0433 7.11689 10.1476 6.45113 10.0244C5.78538 9.90128 5.1804 9.55777 4.73349 9.04917C4.28659 8.54056 4.02374 7.89643 3.98722 7.22036C3.9507 6.5443 4.14263 5.8756 4.53215 5.32181C4.92166 4.76803 5.48611 4.36135 6.13473 4.16718C6.78334 3.97301 7.47841 4.00265 8.10814 4.25131C8.73787 4.49998 9.26567 4.95322 9.60664 5.53815L10.2457 5.16565Z" fill="#8A8A8A" stroke="#8A8A8A" stroke-width="2" stroke-linejoin="round" mask="url(#path-2-inside-1_134_528)"/>
</svg>
