<svg width="20" height="20" viewBox="0 0 20 20" fill="none" xmlns="http://www.w3.org/2000/svg">
<path d="M16.0434 6.51737C16.0434 4.92147 15.4095 3.39092 14.281 2.26245C13.1525 1.13397 11.622 0.5 10.0261 0.5C8.43016 0.5 6.89961 1.13397 5.77114 2.26245C4.64266 3.39092 4.00869 4.92147 4.00869 6.51737C4.00869 13.5376 1 15.5434 1 15.5434H19.0521C19.0521 15.5434 16.0434 13.5376 16.0434 6.51737Z" stroke="#222222" stroke-width="0.9" stroke-linecap="round" stroke-linejoin="round"/>
<path d="M11.761 18.5C11.5847 18.804 11.3316 19.0563 11.0271 19.2316C10.7226 19.407 10.3774 19.4993 10.026 19.4993C9.67463 19.4993 9.3294 19.407 9.02491 19.2316C8.72041 19.0563 8.46734 18.804 8.29102 18.5" stroke="#222222" stroke-width="0.9" stroke-linecap="round" stroke-linejoin="round"/>
</svg>
