<svg width="20" height="21" viewBox="0 0 20 21" fill="none" xmlns="http://www.w3.org/2000/svg">
<path d="M16.0434 6.6789C16.0434 5.05064 15.4095 3.48908 14.281 2.33772C13.1525 1.18637 11.622 0.539551 10.0261 0.539551C8.43016 0.539551 6.89961 1.18637 5.77114 2.33772C4.64266 3.48908 4.00869 5.05064 4.00869 6.6789C4.00869 13.8415 1 15.8879 1 15.8879H19.0521C19.0521 15.8879 16.0434 13.8415 16.0434 6.6789Z" stroke="#222222" stroke-width="0.9" stroke-linecap="round" stroke-linejoin="round"/>
<path d="M11.761 18.9043C11.5847 19.2144 11.3316 19.4718 11.0271 19.6508C10.7226 19.8297 10.3774 19.9239 10.026 19.9239C9.67463 19.9239 9.3294 19.8297 9.02491 19.6508C8.72041 19.4718 8.46734 19.2144 8.29102 18.9043" stroke="#222222" stroke-width="0.9" stroke-linecap="round" stroke-linejoin="round"/>
</svg>
