<svg width="20" height="20" viewBox="0 0 20 20" fill="none" xmlns="http://www.w3.org/2000/svg">
<path d="M6.89269 4.24996L6.55086 4.46592C6.14707 4.72103 5.64592 4.76858 5.20135 4.59398L4.37001 4.26747C3.69369 4.00185 2.92424 4.25917 2.54376 4.87819L1.70652 6.24034C1.2922 6.91442 1.47271 7.7944 2.11895 8.25093L2.56675 8.56727C2.96466 8.84838 3.20127 9.30522 3.20127 9.7924V10.4784C3.20127 10.9222 3.00477 11.3432 2.66462 11.6282L2.02286 12.1659C1.42688 12.6653 1.31126 13.5372 1.75652 14.1747L2.74674 15.5922C3.19079 16.2279 4.04616 16.4204 4.71969 16.0362L5.02023 15.8647C5.55609 15.5591 6.22446 15.6126 6.70478 15.9998L7.03283 16.2642C7.38612 16.5489 7.59153 16.9783 7.59153 17.4321V17.6328C7.59153 18.4612 8.2631 19.1328 9.09153 19.1328H10.7379C11.5663 19.1328 12.2379 18.4612 12.2379 17.6328V17.2776C12.2379 16.7468 12.5183 16.2556 12.9753 15.9858L13.6902 15.5638C14.1304 15.304 14.6725 15.2862 15.1287 15.5165L15.7138 15.8118C16.3997 16.1581 17.2365 15.9299 17.6518 15.2834L18.3173 14.2473C18.6982 13.6543 18.6149 12.876 18.117 12.3771L17.3592 11.6177C17.0785 11.3365 16.9209 10.9554 16.9209 10.5582V9.75399C16.9209 9.28837 17.1372 8.84914 17.5062 8.56519L17.8836 8.27482C18.4986 7.80155 18.6512 6.93726 18.2352 6.28206L17.4292 5.01247C17.001 4.3379 16.1191 4.11744 15.4238 4.51111L15.1608 4.65999C14.6888 4.92726 14.1092 4.91883 13.6451 4.63795L12.9979 4.24623C12.5489 3.97448 12.2746 3.48781 12.2746 2.96296V2.63281C12.2746 1.80439 11.603 1.13281 10.7746 1.13281H9.09153C8.2631 1.13281 7.59153 1.80439 7.59153 2.63281V2.98184C7.59153 3.49643 7.32774 3.97511 6.89269 4.24996Z" stroke="#222222" stroke-linecap="round"/>
<path d="M12.6109 10.0653C12.6109 11.4905 11.4581 12.6442 10.0384 12.6442C8.61856 12.6442 7.46582 11.4905 7.46582 10.0653C7.46582 8.63997 8.61856 7.48633 10.0384 7.48633C11.4581 7.48633 12.6109 8.63997 12.6109 10.0653Z" stroke="#222222"/>
</svg>
